<svg xmlns="http://www.w3.org/2000/svg" width="666.667" height="666.667" version="1.0" viewBox="0 0 500 500"><path d="M282.4 116.3c-92.9 92.9-93 93.1-94.6 92.4-.7-.3-6.5-4.7-12.8-9.7s-21.2-16.6-33-25.7c-11.8-9.2-23.8-18.6-26.7-21-2.8-2.4-5.6-4.3-6.2-4.3s-1.1-.4-1.1-.8-2.5-2.5-5.6-4.7-6.1-4.5-6.7-5c-.7-.6-4.9-3.8-9.5-7.3-9.2-7.1-9-7.1-18.1-1.6-3.1 1.9-6.1 3.4-6.8 3.4-.6 0-1.3.3-1.5.7-.3.9-3.5 2.7-12.4 7.2-3.4 1.8-7.3 4.2-8.8 5.6l-2.6 2.4.1 107c.1 97.7.3 107.1 1.8 108.3 2.5 2 6 3.9 10 5.3 2 .7 9.1 3.8 15.7 6.9 8.3 3.8 12.7 5.4 14 4.9 1.6-.6 17.4-12.3 22.2-16.3.7-.6 6.5-5.1 13-10 6.4-4.9 16.4-12.6 22.2-17 5.8-4.5 14.7-11.3 19.8-15.1s10.1-7.7 11.2-8.7c2.8-2.6 4.2-3.5 8.2-6 2-1.3 5.9-4.1 8.5-6.3 2.6-2.1 5.1-3.9 5.6-3.9.9 0 24.6 23.4 119.4 117.7 29.5 29.3 54.2 53.3 55 53.3 1.7 0 11.5-3.2 12.3-4 .3-.3 5.5-2.5 11.5-4.9 6.1-2.4 12.4-4.9 14-5.7 1.7-.7 5.9-2.5 9.5-3.9s7.9-3.2 9.5-3.9c1.7-.7 5.7-2.4 9-3.6 5.7-2.2 9.8-3.9 17.5-7.3 1.9-.8 7.9-3.2 13.3-5.3l9.7-3.7v-76.6c0-42.1 0-85.8.1-97.1v-96.1l-.1-75.6-2.2-1c-1.3-.6-5-2.1-8.3-3.3-3.3-1.3-7.3-2.9-9-3.6-1.6-.7-5.4-2.3-8.4-3.4-3-1.2-7.4-3-9.7-4.1-2.4-1-4.6-1.9-4.9-1.9-.4 0-2.1-.6-3.8-1.4-1.8-.8-6.3-2.6-10.2-4.1-3.8-1.4-8.3-3.2-10-4-1.6-.7-5.9-2.3-9.5-3.6s-6.6-2.7-6.8-3.1-1.1-.8-2.1-.8c-.9 0-3.4-.9-5.6-2s-4.4-2-5-2c-.5-.1-2.8-.9-5-2s-4.9-1.9-6-1.9c-1.3 0-29.6 27.7-80.1 78.2m80.4 137.6c-.3 77.6-.5 86.6-1.9 86.9-1.3.2-4.4-1.8-11-7.2-1.6-1.3-4.8-3.7-22.4-16.9-12.1-9.1-15.4-11.6-51-39.2-15.4-11.9-28.4-22.3-28.8-23.1-1.2-2.1.1-3.6 7.3-9.1 8.2-6.2 10.9-8.4 12.9-10.6.8-.9 1.9-1.7 2.3-1.7.6 0 25.4-18.7 30.8-23.2.8-.7 4.1-3.3 7.5-5.7 3.3-2.4 6.2-4.7 6.5-5s2.4-1.9 4.8-3.4c2.3-1.5 10.4-7.5 18-13.4 23.7-18.3 22.4-17.4 23.9-16.2 1.1 1 1.3 16 1.1 87.8m-274-56.2c5.4 5.4 20.1 19.9 32.5 32.1 12.5 12.3 22.7 22.8 22.7 23.3 0 .9-8.9 10.7-16.5 18.4-25.2 25.1-48.8 47.6-49.8 47.2-.9-.3-1.2-15.2-1.2-64.8 0-35.4.1-64.7.3-65.2.7-1.7 2.7-.2 12 9"/></svg>
